<svg id="creative" xmlns="http://www.w3.org/2000/svg" width="990" height="772.615" viewBox="0 0 990 772.615">
  <ellipse id="Ellipse_19" data-name="Ellipse 19" cx="495" cy="23" rx="495" ry="23" transform="translate(0 726.615)" fill="#3f3d56"/>
  <ellipse id="Ellipse_20" data-name="Ellipse 20" cx="115" cy="16" rx="115" ry="16" transform="translate(617 737.615)" opacity="0.1"/>
  <ellipse id="Ellipse_21" data-name="Ellipse 21" cx="145" cy="19" rx="145" ry="19" transform="translate(183 731.615)" opacity="0.1"/>
  <path id="Tracé_204" data-name="Tracé 204" d="M501.73,222.8l25.4-5.806L546,222.8,402.3,736.618l-20.32,11.612L402.3,485.515Z" fill="#2b6cb0"/>
  <path id="Tracé_205" data-name="Tracé 205" d="M501.73,222.8l25.4-5.806L546,222.8,402.3,736.618l-20.32,11.612L402.3,485.515Z" opacity="0.1"/>
  <path id="Tracé_206" data-name="Tracé 206" d="M143.582,63.5,384.525,747.867l145.146-530.51Z" fill="#2b6cb0"/>
  <path id="Tracé_207" data-name="Tracé 207" d="M321.873,557.731c40.629,36.752,32.964,73.737,6.014,103.529Q326.948,662.3,326,663.3q-1.918,2.031-3.9,3.928c-26.227,25.166-60.038,32.568-97.823-1.611-39.1-35.372-43.241-129.986-43.5-137.034,0,0,0,0,0-.01-.01-.268-.014-.4-.014-.4S281.248,520.982,321.873,557.731Z" transform="translate(-105 -63.693)" fill="#2b6cb0"/>
  <path id="Tracé_208" data-name="Tracé 208" d="M319.9,657.6l-9.719-44.667,12.7,47.454L326,663.3q-1.918,2.031-3.9,3.928L283.376,628.34l-.329-.268-.027-.09-3.658-3.676-48.607-7.914,45.783,5.252.859.687-29.257-29.385-47.048-11.694,41.84,6.6-62.157-59.267-.206-.2.209.189,49.959,45.7-4.622-34.9L235,578.261l27.093,25.321-12.111-39.654,16.1,43.374,15.065,14.079-16.012-56.132L286.394,626.3Z" transform="translate(-105 -63.693)" fill="#3f3d56"/>
  <path id="Tracé_209" data-name="Tracé 209" d="M430,488.307a170,170,0,1,0,170,170,170,170,0,0,0-170-170Zm3,211.5c-19.054,0-34.5-18.8-34.5-42s15.446-42,34.5-42,34.5,18.8,34.5,42S452.054,699.807,433,699.807Z" transform="translate(-105 -63.693)" fill="#3f3d56"/>
  <path id="Tracé_210" data-name="Tracé 210" d="M432,699.807c-19.054,0-34.5-18.8-34.5-42s15.446-42,34.5-42c18.453,0,33.522,17.637,34.454,39.82.021-.605.046-1.21.046-1.82a50.99,50.99,0,1,0-26.956,44.981A28.7,28.7,0,0,1,432,699.807Z" transform="translate(-105 -63.693)" opacity="0.1"/>
  <path id="Tracé_211" data-name="Tracé 211" d="M253.3,63.693a73.3,73.3,0,1,0,73.3,73.3,73.3,73.3,0,0,0-73.3-73.3Zm1.294,91.192c-8.215,0-14.875-8.108-14.875-18.109s6.66-18.109,14.875-18.109,14.875,8.108,14.875,18.109S262.808,154.885,254.592,154.885Z" transform="translate(-105 -63.693)" fill="#3f3d56"/>
  <path id="Tracé_212" data-name="Tracé 212" d="M254.161,154.885c-8.215,0-14.875-8.108-14.875-18.109s6.66-18.109,14.875-18.109c7.956,0,14.454,7.6,14.856,17.169.009-.261.02-.522.02-.785a21.985,21.985,0,1,0-11.623,19.394,12.376,12.376,0,0,1-3.253.439Z" transform="translate(-105 -63.693)" opacity="0.1"/>
  <path id="Tracé_213" data-name="Tracé 213" d="M787,725.307H776v93s71,23,140,0v-93Z" transform="translate(-105 -63.693)" fill="#3f3d56"/>
  <ellipse id="Ellipse_22" data-name="Ellipse 22" cx="69" cy="10.5" rx="69" ry="10.5" transform="translate(671 651.615)" fill="#3f3d56"/>
  <ellipse id="Ellipse_23" data-name="Ellipse 23" cx="69" cy="10.5" rx="69" ry="10.5" transform="translate(671 651.615)" opacity="0.1"/>
  <path id="Tracé_214" data-name="Tracé 214" d="M925.208,614.193c-17.406,64.345-77.027,104.195-77.027,104.195s-31.4-64.473-13.993-128.818,77.027-104.195,77.027-104.195S942.615,549.849,925.208,614.193Z" transform="translate(-105 -63.693)" fill="#3f3d56"/>
  <path id="Tracé_215" data-name="Tracé 215" d="M766.858,614.193c17.406,64.345,77.027,104.195,77.027,104.195s31.4-64.473,13.993-128.818-77.027-104.195-77.027-104.195S749.452,549.849,766.858,614.193Z" transform="translate(-105 -63.693)" fill="#2b6cb0"/>
  <path id="Tracé_216" data-name="Tracé 216" d="M792.436,600.365c47.763,46.5,53.6,117.971,53.6,117.971s-71.606-3.91-119.369-50.406-53.6-117.971-53.6-117.971S744.672,553.869,792.436,600.365Z" transform="translate(-105 -63.693)" fill="#3f3d56"/>
  <path id="Tracé_217" data-name="Tracé 217" d="M899.63,600.365c-47.763,46.5-53.6,117.971-53.6,117.971s71.606-3.91,119.369-50.406S1019,549.96,1019,549.96,947.394,553.869,899.63,600.365Z" transform="translate(-105 -63.693)" fill="#3f3d56"/>
  <circle id="Ellipse_24" data-name="Ellipse 24" cx="22" cy="22" r="22" transform="translate(719 399.615)" fill="#2b6cb0"/>
  <path id="Tracé_218" data-name="Tracé 218" d="M436.436,313.661s42.346,1.151,49.34,3.7S495.9,338.1,495.9,338.1l-32.879,10.334-24.592-1.393-18.508,1.308,10.334-27.065Z" transform="translate(-105 -63.693)" fill="#2f2e41"/>
  <path id="Tracé_219" data-name="Tracé 219" d="M438.263,299.766s2.786,10.761-3.4,18.38,26.582,34.77,26.582,34.77l17.285-2.971s-3.81-33.064,1.308-41.437S438.263,299.766,438.263,299.766Z" transform="translate(-105 -63.693)" fill="#9f616a"/>
  <path id="Tracé_220" data-name="Tracé 220" d="M438.263,299.766s2.786,10.761-3.4,18.38,26.582,34.77,26.582,34.77l17.285-2.971s-3.81-33.064,1.308-41.437S438.263,299.766,438.263,299.766Z" transform="translate(-105 -63.693)" fill="#fdcdab"/>
  <path id="Tracé_221" data-name="Tracé 221" d="M448.22,550.693,410.081,601.27l26.028,15.2,35.822-58.608Z" fill="#fdcdab"/>
  <path id="Tracé_222" data-name="Tracé 222" d="M526.468,665.815s-14.044-16.319-13.419-12.68-9.993,34.5-.114,37.485,94.6,10.9,95.766,1.336-25.274-16.262-25.274-16.262-15.708-15.1-19.19-13.561S526.468,665.815,526.468,665.815Z" transform="translate(-105 -63.693)" fill="#2f2e41"/>
  <path id="Tracé_223" data-name="Tracé 223" d="M439.663,598.995l30.463,51.9,23-13.319-30.718-42.489Z" fill="#fdcdab"/>
  <path id="Tracé_224" data-name="Tracé 224" d="M592.752,539.217l-9.041,12.794s-43.1,59.859-38.522,64.692,23.64,23.1,33.334,19.56,44.137-64.721,44.137-64.721l-8.984-35.921Z" transform="translate(-105 -63.693)" fill="#2f2e41"/>
  <path id="Tracé_225" data-name="Tracé 225" d="M407.09,527.106s9.652,18.01,34.116,24.108,50.023,18.565,50.932,18.408,3.483-1.535,4.108,2.1,7.335,9.979,7.335,9.979,27.023,91.829,37.343,91.928,31.529-7.292,31.969-10.178-31.6-96.662-31.913-98.481l-3.753-21.834s42.375,6.766,46.327,7.96,39.105,20.441,39.105,20.441,35.836-25.829,2.317-51.913-91.132-45.218-91.132-45.218L513.176,468.6l-18.013-1.075-2.652-10.171-42.662,2.461L405.327,478.7Z" transform="translate(-105 -63.693)" fill="#2f2e41"/>
  <circle id="Ellipse_25" data-name="Ellipse 25" cx="33.232" cy="33.232" r="33.232" transform="translate(325.163 191.029)" fill="#fdcdab"/>
  <path id="Tracé_226" data-name="Tracé 226" d="M433.33,314.663l4-.687s7.219,27.795,29.551,32.386c0,0,11.019-13.2,10.549-15.428s8.727-14.111,13.617-7.458-1.194,123.841,2.914,125.945,12.921,4.336,5.828,12.111-35.267,18.238-41.508,14.627-18.991-34.2-24.507-44.493-14.343-45.3-14.343-45.3-11.273-38.338-4.336-47.023S433.33,314.663,433.33,314.663Z" transform="translate(-105 -63.693)" fill="#d0cde1"/>
  <path id="Tracé_227" data-name="Tracé 227" d="M465.135,458.934a189.564,189.564,0,0,1-3.807,24.268c-1.63,6.508-3.527,10.437-5.693,10.27-5.526-.413-8.037,7.691-9.332,17.035-1.384,9.913-1.384,21.221-2.143,25.217-1,5.28-7.434,9.31-20.283,8.127a90.661,90.661,0,0,1-22.348-5.481c-17.347-6.307-16.834-57.455-13.931-95.409,1.775-23.263,4.443-41.582,4.443-41.582s-5.269-15.717-6.954-26.49a35.212,35.212,0,0,1-.5-5.95c.257-9.41,17.436-34.839,27.818-50.68s24.569-4.22,24.569-4.22l-4.934,14.891s7.647,11.8,7.7,23.029,18.307,19.334,24.86,24.77C468.718,380.146,468.617,425.747,465.135,458.934Z" transform="translate(-105 -63.693)" fill="#2f2e41"/>
  <path id="Tracé_228" data-name="Tracé 228" d="M479.564,319.361s1.2,1.416,6.681.725c6.576-.828,15.618,1.447,17.719,7.726,3.852,11.514,14.713,58.352,14.713,58.352s4.521,53.548,6.553,65.375,1.024,22.3,3.028,28.515-19.787-11.585-27.819-9.268-13.192-27.7-12.182-38.181,1.862-21.863-.924-32.623,2.153-39.24,1.969-45.765S471.592,331.247,479.564,319.361Z" transform="translate(-105 -63.693)" fill="#2f2e41"/>
  <path id="Tracé_229" data-name="Tracé 229" d="M503.078,485.787s35.186,19.2,38.553,46.518-47.062-26.455-47.062-26.455Z" transform="translate(-105 -63.693)" fill="#fdcdab"/>
  <path id="Tracé_230" data-name="Tracé 230" d="M523.164,466.412s10.782,54.345,27.577,51.458-9.382-54.585-9.382-54.585Z" transform="translate(-105 -63.693)" fill="#fdcdab"/>
  <path id="Tracé_231" data-name="Tracé 231" d="M580.684,703.328s-8.6,9.908-10.732,8.4-7.036,19.005-2.615,22.929,21.45,10.363,21.635,16.887,45.857,5.231,47.492-1.606-5.729-22.431-10.9-25.288S601.254,695.5,601.254,695.5,586.27,697.685,580.684,703.328Z" transform="translate(-105 -63.693)" fill="#2f2e41"/>
  <path id="Tracé_232" data-name="Tracé 232" d="M497.473,519.024c-8.16-5.76-30.943-7.189-51.171-8.517-8.874-.569-17.258-1.127-23.7-2.032-6.207-.86-11.788-6.53-16.744-14.981-7.513-12.8-13.585-32-18.262-50.534,1.775-23.263,4.443-41.582,4.443-41.582s-5.269-15.717-6.954-26.49a14.177,14.177,0,0,1,4.487-4.041c21.455-9.209,41.939,81.422,44.54,95.644.045.234.078.458.112.647,1.261,7.323,14.891,13.585,27.1,16.063,7.524,1.529,14.523,1.63,17.749-.357,8.473-5.2,34.527,15.617,36.5,16.209S509.194,527.318,497.473,519.024Z" transform="translate(-105 -63.693)" opacity="0.1"/>
  <path id="Tracé_233" data-name="Tracé 233" d="M389.577,365.269s-15.594,7.363-8.742,41.778S401.489,499.97,422.6,502.9s63.143,2.26,74.87,10.547,20.086-19.375,18.11-19.972-28.032-21.408-36.5-16.2-42.815-3.881-44.848-15.707S411.382,355.9,389.577,365.269Z" transform="translate(-105 -63.693)" fill="#2f2e41"/>
  <path id="Tracé_234" data-name="Tracé 234" d="M501.946,348.765l17.138,39.767s1.725-.861,3.73,5.351,2.943,11.67,6.454,15.75,19.134,62.276,19.6,65.005-21.577,12.138-26.5,4.555S501.946,348.765,501.946,348.765Z" transform="translate(-105 -63.693)" fill="#2f2e41"/>
  <path id="Tracé_235" data-name="Tracé 235" d="M444.488,287.491c1.274-.34,1.461-2.031,1.5-3.348.229-7.055,4.477-14.3,11.231-16.349a18.882,18.882,0,0,1,7.959-.438,30.145,30.145,0,0,1,10.778,3.6c1.759.989,3.484,2.18,5.48,2.482,1.318.2,7.023,1.858,8.335,2.092,2.885.513,5.566,3.094,8.334,2.134,2.648-.919,3.235-4.348,3.3-7.15.146-6.385-4.7-15.221-8.97-19.971-3.24-3.6-8.118-5.268-12.886-6.133a85.789,85.789,0,0,0-16.853-1.025c-7.631.136-15.474.725-22.355,4.027s-12.661,9.874-12.991,17.5c-.069,1.588.1,3.183-.038,4.768-.326,3.865-2.378,7.356-3.341,11.113a20.335,20.335,0,0,0,2.84,16.25c2.554,3.758,6.568,7.157,6.42,11.7L438.77,303a4.547,4.547,0,0,0,1.352-5.556l-1.96-7.645a6.9,6.9,0,0,1-.17-4.255C440.093,280.35,442.365,288.058,444.488,287.491Z" transform="translate(-105 -63.693)" fill="#2f2e41"/>
</svg>
