<svg xmlns="http://www.w3.org/2000/svg" width="478.387" height="483.527" viewBox="0 0 478.387 483.527">
  <g id="undraw_Books_l33t" transform="translate(-296.511 -85.873)">
    <path id="Tracé_273" data-name="Tracé 273" d="M856.9,734.415q-37.048-5.8-71.243-9.867l8.778-17.557c-3.047-1.016-16.251,9.141-16.251,9.141l11.172-50.784c-15.235,2.031-22.345,53.831-22.345,53.831l-17.267-17.267,8.5,19.549c-69.758-7.33-129.953-9.617-180.554-9.093l7.513-15.027c-3.047-1.016-16.251,9.141-16.251,9.141L580.124,655.7c-15.235,2.031-22.345,53.831-22.345,53.831l-17.267-17.267,9,20.706a1013.489,1013.489,0,0,0-103.623,8.345c7.5-23.356,33.679-45.809,33.679-45.809-20.131,6.263-30.6,16.467-36.026,25.925a407.86,407.86,0,0,1,21.806-141.2s-40.627,91.411-34.533,152.352l.773,10.825c-35.345,5.514-53.081,11.012-53.081,11.012Z" transform="translate(-82 -165.014)" fill="#3f3d56"/>
    <circle id="Ellipse_31" data-name="Ellipse 31" cx="158.77" cy="158.77" r="158.77" transform="translate(365.655 129.089)" fill="#2b6cb0" opacity="0.3"/>
    <path id="Tracé_274" data-name="Tracé 274" d="M459.223,85.873,353.51,214.137,509.965,398.782l104.3-122.626Z" fill="#2b6cb0"/>
    <path id="Tracé_275" data-name="Tracé 275" d="M459.223,85.873,353.51,214.137,509.965,398.782l104.3-122.626Z" opacity="0.1"/>
    <path id="Tracé_276" data-name="Tracé 276" d="M439.739,380.561h0a53.132,53.132,0,0,1,8.619-11.508l97.094-98.433s33.828-5.638,40.876,11.276L462.291,383.38Z" transform="translate(-82 -165.014)" fill="#f2f2f2"/>
    <path id="Tracé_277" data-name="Tracé 277" d="M434.805,378.447,578.575,598.33s14.095,9.867,28.19,4.229l147.293-99.37L597.6,266.392,456.653,376.333Z" transform="translate(-82 -165.014)" fill="#2b6cb0"/>
    <rect id="Rectangle_186" data-name="Rectangle 186" width="111.092" height="2.284" transform="matrix(0.812, -0.584, 0.584, 0.812, 407.812, 200.517)" fill="#3f3d56"/>
    <rect id="Rectangle_187" data-name="Rectangle 187" width="2.284" height="214.62" transform="matrix(0.834, -0.552, 0.552, 0.834, 404.713, 226.042)" fill="#3f3d56"/>
    <rect id="Rectangle_188" data-name="Rectangle 188" width="118.967" height="2.285" transform="translate(537.486 409.153) rotate(-36.344)" fill="#3f3d56"/>
    <rect id="Rectangle_189" data-name="Rectangle 189" width="2.284" height="214.661" transform="translate(513.257 140.084) rotate(-34.838)" fill="#3f3d56"/>
    <rect id="Rectangle_190" data-name="Rectangle 190" width="151.386" height="1.409" transform="translate(365.721 206.57) rotate(-42.545)" fill="#3f3d56"/>
    <rect id="Rectangle_191" data-name="Rectangle 191" width="155.492" height="1.41" transform="translate(369.98 207.992) rotate(-41.439)" fill="#3f3d56"/>
    <rect id="Rectangle_192" data-name="Rectangle 192" width="157.533" height="1.41" transform="matrix(0.768, -0.64, 0.64, 0.768, 372.828, 208.002)" fill="#3f3d56"/>
  </g>
</svg>
